#N canvas 489 101 1132 472 10;
#X msg 544 83 socket subscribe;
#X msg 581 108 connect tcp://127.0.0.1:5555;
#X obj 544 222 print;
#X msg 489 156 close;
#X msg 92 84 socket publish;
#X msg 136 127 bind tcp://127.0.0.1:5555;
#X obj 237 52 metro 1000;
#X obj 237 31 tgl 15 0 empty empty empty 17 7 0 10 #fcfcfc #000000 #000000 0 1;
#X obj 237 75 random 1000;
#X obj 84 283 zmq;
#X obj 544 173 zmq;
#X floatatom 595 257 5 0 0 0 - - - 0;
#X obj 332 33 tgl 15 0 empty empty empty 17 7 0 10 #fcfcfc #000000 #000000 0 1;
#X obj 332 76 random 5;
#X obj 332 54 metro 666;
#X symbolatom 647 282 10 0 0 0 - - - 0;
#X msg 657 128 subscribe blubb;
#X msg 237 98 send random \$1;
#X obj 595 222 route random blubb;
#X msg 679 167 unsubscribe random;
#X msg 18 212 send toto;
#X msg 41 179 send;
#X msg 332 97 send blubbxx symbol msg-\$1;
#N canvas 0 50 700 450 (subpatch) 0;
#X array array1 256 float 2;
#X coords 0 256 256 0 200 140 1 0 0;
#X restore 860 27 graph;
#X obj 908 258 uzi 256 0, f 13;
#X obj 965 342 tabwrite array1;
#X obj 983 294 t f f;
#X obj 908 233 ui.bang @size 15 15 @receive "(null)" @send "(null)" @nosave 0 @pinned 0 @background_color 0.93 0.93 0.93 1 @border_color 0.6 0.6 0.6 1 @label_color 0 0 0 1 @active_color 0 0.75 1 1 @fontname "Helvetica" @fontweight "normal" @fontslant "roman" @fontsize 11 @label "(null)" @label_inner 0 @label_side "top" @label_align "left" @label_valign "top" @label_margins 0 0;
#X obj 908 208 loadbang;
#X msg 284 189 send_array arr array1;
#X msg 666 149 subscribe random;
#X msg 691 191 subscribe arr;
#X connect 0 0 10 0;
#X connect 1 0 10 0;
#X connect 3 0 10 0;
#X connect 4 0 9 0;
#X connect 5 0 9 0;
#X connect 6 0 8 0;
#X connect 7 0 6 0;
#X connect 8 0 17 0;
#X connect 10 0 2 0;
#X connect 10 0 18 0;
#X connect 12 0 14 0;
#X connect 13 0 22 0;
#X connect 14 0 13 0;
#X connect 16 0 10 0;
#X connect 17 0 9 0;
#X connect 18 0 11 0;
#X connect 18 1 15 0;
#X connect 19 0 10 0;
#X connect 20 0 9 0;
#X connect 21 0 9 0;
#X connect 22 0 9 0;
#X connect 24 2 26 0;
#X connect 26 0 25 0;
#X connect 26 1 25 1;
#X connect 27 0 24 0;
#X connect 28 0 27 0;
#X connect 29 0 9 0;
#X connect 30 0 10 0;
#X connect 31 0 10 0;
